<?xml version="1.0" encoding="utf-8"?>
<!-- Generator: Adobe Illustrator 22.0.1, SVG Export Plug-In . SVG Version: 6.00 Build 0)  -->
<svg version="1.1" id="Layer_1" xmlns="http://www.w3.org/2000/svg" xmlns:xlink="http://www.w3.org/1999/xlink" x="0px" y="0px"
	 viewBox="0 0 495 495" style="enable-background:new 0 0 495 495;" xml:space="preserve">
<style type="text/css">
	.st0{fill:#0751A0;}
	.st1{fill:#20396F;}
	.st2{fill:#FFFFFF;}
</style>
<title>musteri memnuniyeti</title>
<path class="st0" d="M476.8,247.4c-0.2,60.8-24.3,119.1-67.2,162.2c-36.6,36.8-84.7,60-136.4,65.7c-8.6,1-17.2,1.4-25.8,1.4
	c-38.4,0-76.1-9.6-109.9-27.9c-0.2-0.1-0.4-0.2-0.6-0.3c-3.3-1.7-6.9-2.6-10.6-2.6c-0.5,0-1,0-1.4,0l-29.8,2l-51.5,3.4L49,370
	c0.3-4.4-0.7-8.8-2.9-12.7c-60.6-111.2-19.6-250.5,91.6-311.2c33.7-18.4,71.4-28,109.8-28c8.6,0,17.1,0.5,25.7,1.4
	C389.1,32.7,476.7,130.7,476.8,247.4z"/>
<path class="st1" d="M247.5,36.4c116.6,0,211.1,94.5,211.1,211.1c0,56-22.2,109.7-61.8,149.2c-66.2,66.2-168.2,80.9-250.4,36.1
	c-6.1-3.4-12.9-5.1-19.9-5.1c-0.9,0-1.8,0-2.6,0.1l-60.6,4l4-60.6c0.5-7.9-1.3-15.7-5.2-22.6C6.2,246.1,44,117.9,146.5,62.1
	C177.5,45.2,212.2,36.4,247.5,36.4L247.5,36.4 M247.5,0L247.5,0C110.8,0.1-0.1,111,0,247.7c0,41.3,10.4,82,30.1,118.3
	c0.5,0.8,0.7,1.8,0.7,2.8l-4,60.6l-2.7,41.4l41.4-2.7l60.6-4h0.3c0.9,0,1.7,0.3,2.4,0.7c120,65.5,270.4,21.3,335.9-98.7
	s21.3-270.4-98.7-335.9C329.7,10.4,288.9,0,247.5,0z"/>
<path class="st2" d="M108.9,175.8c0-22.8,18.5-41.3,41.4-41.3c11.5,0,22.6,4.8,30.4,13.3c-3.7,15.7-1.3,32.2,6.9,46
	c-9.9,20.6-34.6,29.2-55.2,19.3C118,206.2,108.9,191.7,108.9,175.8L108.9,175.8z"/>
<path class="st2" d="M303.9,162.1c0,11.1-2.9,22-8.5,31.6c9.9,20.6,34.7,29.3,55.3,19.4c20.6-9.9,29.3-34.7,19.4-55.3
	c-9.9-20.6-34.7-29.3-55.3-19.4c-4.7,2.3-9,5.4-12.5,9.3C303.4,152.4,303.9,157.3,303.9,162.1z"/>
<path class="st2" d="M352.8,222.4c-10,5.1-21.5,6.3-32.3,3.2c25,15.9,29.4,41,29.4,65.4v31.5c9.8-0.8,19.5-2.4,29-4.9l5.5-33.2v31.6
	c8.9-2.6,17.4-6.4,25.3-11.5v-26.4C409.7,251.8,403.3,227.3,352.8,222.4z"/>
<path class="st2" d="M170.4,222.4L170.4,222.4c-12.7,6.5-27.7,6.5-40.3,0c-50.5,4.9-56.9,29.4-56.9,55.8v26.4
	c7.8,5,16.3,8.9,25.2,11.5v-31.6l5.5,33.2c9.5,2.4,19.1,4.1,28.9,4.9v-31.6c0-11.6,1.2-24.8,6.8-37
	C144.9,241.8,154.2,230.6,170.4,222.4z"/>
<path class="st2" d="M304.8,316.6c-10.9-35-48-54.6-83-43.7c-19.3,6-34.8,20.4-42.1,39.2l-0.2-1.2l-2,7.9
	c-1.6,5.7-2.3,11.6-2.3,17.5c0,0.5,0,1,0,1.4c-4.5-1.5-8.7-3-12.7-4.8c-6.7-2.8-13.1-6.4-19-10.6v-31.3c0-33.2,11.3-63.8,73.9-70.1
	c15.9,8.1,34.8,8.1,50.7,0c63.4,6.2,71.5,36.9,71.5,70.2v33.1c-6,3.9-12.3,7.3-19,9.9c-4,1.6-8.3,3.2-12.7,4.5"/>
<path class="st2" d="M293.5,162.1c0,28.7-23.3,52-52,52c-28.7,0-52-23.3-52-52c0-28.7,23.3-52,52-52c0,0,0,0,0,0
	C270.2,110.1,293.5,133.4,293.5,162.1C293.5,162.1,293.5,162.1,293.5,162.1z"/>
<path class="st2" d="M307.7,320.6c-1-36.6-31.5-65.4-68.1-64.4c-34.8,1-62.9,28.7-64.3,63.5c0,0.9,0,1.8,0,2.8
	c0.5,36.6,30.6,65.9,67.2,65.3c35.9-0.5,64.8-29.5,65.3-65.3C307.7,321.8,307.7,321.2,307.7,320.6z M241.5,378
	c-30.2,0-54.9-24.1-55.6-54.3c0-0.4,0-0.8,0-1.2c0-4.9,0.7-9.9,2-14.7c0.5-1.9,1.1-3.8,1.8-5.6c11.2-28.6,43.4-42.7,72-31.6
	c28.6,11.2,42.7,43.4,31.6,72C284.9,364,264.4,378,241.5,378L241.5,378z"/>
<path class="st2" d="M241.5,357.6c0,0-34.5-21.6-34.5-43.2c0-9.7,7.8-17.6,17.5-17.6c7.9,0,14.9,5.3,16.9,12.9
	c2.6-9.3,12.2-14.8,21.6-12.3c7.6,2.1,12.9,9,12.9,16.9C275.9,336.1,241.5,357.6,241.5,357.6z"/>
</svg>
